<svg version="1.1" class="caissa-logo" xmlns="http://www.w3.org/2000/svg" xmlns:xlink="http://www.w3.org/1999/xlink" x="0px" y="0px" viewBox="0 0 432 124" enable-background="new 0 0 432 124" xml:space="preserve">
<polygon fill="#39E3D0" points="41.277,75.223 27.52,61.466 41.277,47.708 55.04,61.466 "></polygon>
<polygon fill="#26BAFA" points="68.798,75.223 55.04,61.466 68.798,47.708 82.56,61.466 "></polygon>
<polygon fill="#FE9242" points="13.758,75.223 0,61.466 13.758,47.708 27.52,61.466 "></polygon>
<rect x="31.549" y="24.222" transform="matrix(0.7071 0.7071 -0.7071 0.7071 36.0966 -19.2436)" fill="#ACF14C" width="19.456" height="19.456"></rect>
<rect x="59.07" y="24.222" transform="matrix(0.7071 0.7071 -0.7071 0.7071 44.1572 -38.7035)" fill="#78D06D" width="19.456" height="19.456"></rect>
<rect x="4.03" y="24.222" transform="matrix(0.7071 0.7071 -0.7071 0.7071 28.0363 0.2157)" fill="#FFDC00" width="19.456" height="19.456"></rect>
<rect x="31.549" y="79.252" transform="matrix(0.7071 0.7071 -0.7071 0.7071 75.0085 -3.1257)" fill="#C247F3" width="19.456" height="19.456"></rect>
<rect x="59.07" y="79.252" transform="matrix(0.7071 0.7071 -0.7071 0.7071 83.0691 -22.5856)" fill="#2149F4" width="19.456" height="19.456"></rect>
<rect x="4.03" y="79.252" transform="matrix(0.7071 0.7071 -0.7071 0.7071 66.9483 16.3335)" fill="#FC1A86" width="19.456" height="19.456"></rect>
<g>
	<path fill="#FFFFFF" d="M110.939,62.371c0-22.825,17.271-37.369,36.46-37.369c19.795,0,29.996,12.12,32.824,23.734l-13.13,4.141
		c-1.717-6.868-7.272-14.443-19.694-14.443c-10.706,0-22.018,7.676-22.018,23.937c0,15.25,10.706,23.633,22.219,23.633
		c12.221,0,18.18-7.979,20.099-14.645l13.029,3.939c-2.727,11.009-13.029,24.34-33.127,24.34
		C127.604,99.639,110.939,85.196,110.939,62.371z"></path>
	<path fill="#FFFFFF" d="M197.698,69.541l12.22-1.817c2.828-0.403,3.737-1.817,3.737-3.535c0-3.535-2.727-6.464-8.383-6.464
		c-5.858,0-9.09,3.737-9.494,8.08l-11.918-2.525c0.808-7.776,7.979-16.361,21.311-16.361c15.755,0,21.613,8.888,21.613,18.887
		v24.441c0,2.626,0.303,6.161,0.605,7.878h-12.321c-0.303-1.312-0.505-4.04-0.505-5.959c-2.525,3.939-7.272,7.373-14.645,7.373
		c-10.604,0-17.068-7.171-17.068-14.948C182.851,75.703,189.416,70.754,197.698,69.541z M213.655,78.025v-2.222l-11.211,1.717
		c-3.434,0.505-6.161,2.424-6.161,6.262c0,2.929,2.121,5.757,6.463,5.757C208.403,89.539,213.655,86.812,213.655,78.025z"></path>
	<path fill="#FFFFFF" d="M233.854,27.729c3.838,0,6.969,3.03,6.969,6.969c0,3.838-3.131,6.868-6.969,6.868s-6.868-3.03-6.868-6.868
		C226.986,30.758,230.017,27.729,233.854,27.729z M236.278,98.124V48.433h13.433v49.691H236.278z M251.933,27.729
		c3.939,0,6.969,3.03,6.969,6.969c0,3.838-3.029,6.868-6.969,6.868c-3.838,0-6.867-3.03-6.867-6.868
		C245.065,30.758,248.095,27.729,251.933,27.729z"></path>
	<path fill="#FFFFFF" d="M267.284,81.763c0.304,3.938,3.232,7.574,9.09,7.574c4.444,0,6.565-2.322,6.565-4.948
		c0-2.223-1.516-4.04-5.354-4.849l-6.564-1.515c-9.595-2.121-13.938-7.878-13.938-14.847c0-8.888,7.878-16.261,18.583-16.261
		c14.14,0,18.887,8.989,19.493,14.342l-11.211,2.525c-0.404-2.929-2.525-6.667-8.181-6.667c-3.535,0-6.363,2.121-6.363,4.949
		c0,2.424,1.818,3.939,4.545,4.444l7.07,1.516c9.797,2.02,14.745,7.979,14.745,15.25c0,8.08-6.262,16.361-19.29,16.361
		c-14.948,0-20.099-9.695-20.705-15.352L267.284,81.763z"></path>
	<path fill="#FFFFFF" d="M309.805,81.763c0.304,3.938,3.232,7.574,9.09,7.574c4.444,0,6.565-2.322,6.565-4.948
		c0-2.223-1.516-4.04-5.354-4.849l-6.564-1.515c-9.595-2.121-13.938-7.878-13.938-14.847c0-8.888,7.878-16.261,18.583-16.261
		c14.14,0,18.887,8.989,19.493,14.342l-11.211,2.525c-0.404-2.929-2.525-6.667-8.181-6.667c-3.535,0-6.363,2.121-6.363,4.949
		c0,2.424,1.818,3.939,4.545,4.444l7.07,1.516c9.797,2.02,14.745,7.979,14.745,15.25c0,8.08-6.262,16.361-19.29,16.361
		c-14.948,0-20.099-9.695-20.705-15.352L309.805,81.763z"></path>
	<path fill="#FFFFFF" d="M356.466,69.541l12.221-1.817c2.828-0.403,3.737-1.817,3.737-3.535c0-3.535-2.727-6.464-8.383-6.464
		c-5.858,0-9.09,3.737-9.494,8.08l-11.917-2.525c0.808-7.776,7.979-16.361,21.311-16.361c15.755,0,21.613,8.888,21.613,18.887
		v24.441c0,2.626,0.303,6.161,0.605,7.878h-12.321c-0.303-1.312-0.505-4.04-0.505-5.959c-2.525,3.939-7.272,7.373-14.645,7.373
		c-10.605,0-17.069-7.171-17.069-14.948C341.619,75.703,348.185,70.754,356.466,69.541z M372.424,78.025v-2.222l-11.211,1.717
		c-3.434,0.505-6.161,2.424-6.161,6.262c0,2.929,2.121,5.757,6.464,5.757C367.172,89.539,372.424,86.812,372.424,78.025z"></path>
</g>
<!-- <g>
	<path fill="#FFFFFF" d="M389.92,25.438v5.94h-1.521v-5.94h-2.24v-1.36h6.001v1.36H389.92z M400.102,31.379v-4.66l-2.021,4.66h-1.18
		l-1.961-4.601v4.601h-1.521v-7.301h1.98l2.141,5.081l2.141-5.081h1.86v7.301H400.102z"/>
</g> -->
</svg>
