<svg version="1.1" id="Layer_1" xmlns="http://www.w3.org/2000/svg" xmlns:xlink="http://www.w3.org/1999/xlink" x="0px" y="0px" width="127px" height="28px" viewBox="0 0 127 28" enable-background="new 0 0 127 28" xml:space="preserve">
<path fill="#5FC5D2" d="M0.483,5.504c0-1.127,0.937-2.034,2.034-2.034c1.127,0,2.034,0.907,2.034,2.034S3.644,7.53,2.517,7.53
							C1.419,7.53,0.483,6.631,0.483,5.504z M0.893,24.482V9.382H4.17v15.101H0.893z"></path>
<path fill="#5FC5D2" d="M7.397,5.504c0-1.127,0.937-2.034,2.026-2.034c1.127,0,2.034,0.907,2.034,2.034S10.55,7.53,9.423,7.53
							C8.333,7.53,7.397,6.631,7.397,5.504z M7.799,24.482V9.382h3.285v15.101H7.799z"></path>
<path fill="#FFFFFF" d="M32.111,24.482L28.043,9.104l-4.031,15.379h-3.907l-5.97-20.852h4.097l4.061,16.066l4.316-16.066h2.905
							l4.309,16.066l4.039-16.066h4.097l-5.94,20.852H32.111z"></path>
<path fill="#FFFFFF" d="M43.188,5.504c0-1.127,0.937-2.034,2.034-2.034c1.126,0,2.033,0.907,2.033,2.034S46.348,7.53,45.222,7.53
							C44.125,7.53,43.188,6.631,43.188,5.504z M43.598,24.482V9.382h3.277v15.101H43.598z"></path>
<path fill="#FFFFFF" d="M49.195,22.514l1.5-2.385c1.061,1.104,3.16,2.137,5.128,2.137c1.969,0,2.964-0.849,2.964-2.034
							c0-2.971-9.124-0.849-9.124-6.629c0-2.465,2.122-4.594,5.941-4.594c2.561,0,4.499,0.907,5.875,2.129l-1.376,2.305
							c-0.907-1.024-2.59-1.808-4.47-1.808c-1.72,0-2.81,0.783-2.81,1.837c0,2.692,9.123,0.688,9.123,6.694
							c0,2.655-2.217,4.682-6.277,4.682C53.101,24.848,50.753,24.043,49.195,22.514z"></path>
<path fill="#FFFFFF" d="M75.27,24.482v-2.063c-1.148,1.5-2.904,2.429-4.844,2.429c-3.877,0-6.715-2.926-6.715-7.901
							c0-4.88,2.809-7.938,6.715-7.938c1.873,0,3.629,0.878,4.844,2.465V3.631h3.285v20.852H75.27z M75.27,19.946v-5.999
							c-0.746-1.135-2.342-2.034-3.9-2.034c-2.596,0-4.25,2.092-4.25,5.033c0,2.912,1.654,5.005,4.25,5.005
							C72.928,21.951,74.523,21.08,75.27,19.946z"></path>
<path fill="#FFFFFF" d="M80.646,16.917c0-4.316,2.963-7.908,7.748-7.908c4.844,0,7.785,3.592,7.785,7.908
							c0,4.346-2.941,7.931-7.785,7.931C83.609,24.848,80.646,21.263,80.646,16.917z M92.77,16.917c0-2.655-1.559-5.004-4.375-5.004
							c-2.787,0-4.338,2.349-4.338,5.004c0,2.686,1.551,5.034,4.338,5.034C91.211,21.951,92.77,19.603,92.77,16.917z"></path>
<path fill="#FFFFFF" d="M116.408,24.482v-9.848c0-1.624-0.717-2.722-2.473-2.722c-1.471,0-2.846,1.031-3.496,2.005v10.564h-3.285
							v-9.848c0-1.624-0.717-2.722-2.496-2.722c-1.447,0-2.787,1.031-3.475,2.034v10.535h-3.285V9.382h3.285v2.062
							c0.621-0.937,2.627-2.436,4.91-2.436c2.252,0,3.629,1.119,4.119,2.787c0.877-1.376,2.881-2.787,5.135-2.787
							c2.781,0,4.346,1.499,4.346,4.564v10.909H116.408z"></path>
<g>
<path fill="#FFFFFF" d="M121.662,6.082V3.857h-0.805V3.455h2.055v0.402h-0.789v2.225H121.662z"></path>
<path fill="#FFFFFF" d="M125.555,6.082V4.136l-0.805,1.946h-0.205l-0.799-1.946v1.946h-0.459V3.455h0.65l0.709,1.727l0.717-1.727
								h0.652v2.627H125.555z"></path>
</g>
</svg>
