<svg version="1.1" id="Layer_1" xmlns="http://www.w3.org/2000/svg" xmlns:xlink="http://www.w3.org/1999/xlink" x="0px" y="0px" viewBox="0 0 120 24" style="enable-background:new 0 0 120 24; width:120px; height:24px" xml:space="preserve">
<path d="M40,24V10h4v14H40z M69,24h14v-4H69V24z M69,14h14v-4H69V14z M69,4h14V0H69V4z M116,20h-6v-6h6V20z M113,10
    c-3.8,0-7,3.1-7,7s3.2,7,7,7s7-3.1,7-7S116.8,10,113,10z M89,24h4V14h10v-4h-7c-3.8,0-7,3.1-7,7V24z M14,10h-4v10H0v4h7
    c3.9,0,7-3.1,7-7V10z M56,10c-3.8,0-7,3.1-7,7s3.2,7,7,7h7v-4H53v-6h10v-4H56z M20,17c0,3.9,3.1,7,7,7s7-3.1,7-7v-7h-4v10h-6V10h-4
    V17z"></path>
</svg>
