<?xml version="1.0" encoding="utf-8"?>
<!-- Generator: Adobe Illustrator 14.0.0, SVG Export Plug-In . SVG Version: 6.00 Build 43363)  -->
<!DOCTYPE svg PUBLIC "-//W3C//DTD SVG 1.1//EN" "http://www.w3.org/Graphics/SVG/1.1/DTD/svg11.dtd">
<svg version="1.1" id="Layer_1" xmlns="http://www.w3.org/2000/svg" xmlns:xlink="http://www.w3.org/1999/xlink" x="0px" y="0px"
	 width="200px" height="60px" viewBox="0 0 200 60" enable-background="new 0 0 200 60" xml:space="preserve">
<path fill="#262728" d="M65.503,52.184h-4.821V33.998c0-3.266-2.704-5.923-6.027-5.923s-6.027,2.657-6.027,5.923v18.186h-4.821
	V33.998c0-5.924,4.866-10.744,10.849-10.744s10.849,4.82,10.849,10.744V52.184z"/>
<rect x="43.805" y="23.254" fill="#262728" width="4.822" height="28.93"/>
<path fill="#262728" d="M82.379,52.184h-4.822V33.998c0-3.266-2.704-5.923-6.027-5.923s-6.027,2.657-6.027,5.923v18.186h-4.822
	V33.998c0-5.924,4.866-10.744,10.849-10.744s10.849,4.82,10.849,10.744V52.184z"/>
<path fill="#262728" d="M99.256,52.787c-7.644,0-13.863-6.624-13.863-14.767s6.219-14.767,13.863-14.767
	c7.644,0,13.862,6.624,13.862,14.767S106.899,52.787,99.256,52.787 M99.256,28.075c-4.985,0-9.041,4.461-9.041,9.945
	c0,5.483,4.056,9.944,9.041,9.944c4.984,0,9.041-4.461,9.041-9.944C108.297,32.536,104.24,28.075,99.256,28.075"/>
<path fill="#262728" d="M129.693,52.787c-7.645,0-13.863-6.624-13.863-14.767s6.219-14.767,13.863-14.767
	c7.644,0,13.862,6.624,13.862,14.767S137.337,52.787,129.693,52.787 M129.693,28.075c-4.985,0-9.041,4.461-9.041,9.945
	c0,5.483,4.056,9.944,9.041,9.944c4.984,0,9.04-4.461,9.04-9.944C138.733,32.536,134.678,28.075,129.693,28.075"/>
<rect x="175.199" y="23.856" fill="#262728" width="4.821" height="28.327"/>
<rect x="185.746" y="23.856" fill="#262728" width="11.451" height="4.821"/>
<path fill="#262728" d="M197.197,52.184h-2.41c-5.317,0-9.644-4.326-9.644-9.643V16.624h4.821v25.917
	c0,2.658,2.163,4.821,4.822,4.821h2.41V52.184z"/>
<polygon fill="#262728" points="166.468,23.856 157.117,44.579 147.766,23.856 142.477,23.856 155.258,52.184 158.976,52.184 
	171.758,23.856 "/>
<path fill="#262728" d="M180.322,18.733c0,1.498-1.215,2.712-2.713,2.712s-2.712-1.214-2.712-2.712s1.214-2.712,2.712-2.712
	S180.322,17.235,180.322,18.733"/>
<path fill="#F16435" d="M20.023,8C10.069,8,2,16.075,2,26.035c0,13.527,18.023,27.053,18.023,27.053s18.023-13.525,18.023-27.053
	C38.047,16.075,29.978,8,20.023,8"/>
<path fill="#262728" d="M27.57,25.986c-0.886,0-1.606-0.72-1.606-1.606s0.72-1.606,1.606-1.606c0.885,0,1.606,0.72,1.606,1.606
	S28.455,25.986,27.57,25.986"/>
<path fill="#262728" d="M12.617,25.986c-0.886,0-1.605-0.72-1.605-1.606s0.72-1.606,1.605-1.606s1.606,0.72,1.606,1.606
	S13.503,25.986,12.617,25.986"/>
<path fill="#262728" d="M20.265,31.17c-3.321,0-5.711-1.96-5.812-2.043c-0.349-0.292-0.396-0.812-0.105-1.161s0.81-0.396,1.16-0.106
	c0.034,0.028,2.059,1.663,4.757,1.663c2.714,0,4.374-1.461,4.391-1.476c0.338-0.305,0.859-0.275,1.164,0.063
	c0.303,0.339,0.275,0.86-0.064,1.164C25.668,29.352,23.602,31.17,20.265,31.17"/>
</svg>
