<svg version="1.1" id="Layer_1" xmlns="http://www.w3.org/2000/svg" xmlns:xlink="http://www.w3.org/1999/xlink" x="0px" y="0px" viewBox="0 0 200 75" enable-background="new 0 0 200 75" xml:space="preserve">
<g>

		<linearGradient id="logo-gradient" gradientUnits="userSpaceOnUse" x1="2877.7061" y1="-4308.54" x2="3380.1973" y2="-5178.8799" gradientTransform="matrix(0.0825 0 0 -0.0825 -212.8017 -344.0083)">
		<stop offset="0.6" style="stop-color:#EE412A"></stop>
		<stop offset="0.9" style="stop-color:#00A5DD"></stop>
	</linearGradient>
	<path fill="url(#logo-gradient)" d="M82.317,72.31c-0.825,0-1.724-0.065-2.692-0.278c-7.729-1.307-10.837-8.896-13.803-19.804
		c-6.903-0.481-16.013-0.065-28.022,1.863c-11.389,1.862-25.743,2.001-29.403-7.59c-0.139-0.417-0.277-0.76-0.413-1.177
		c-1.52-0.343-2.831-0.891-3.868-1.52c-2.415-1.446-3.587-3.655-3.378-6.14c0.481-4.419,5.314-9.044,13.042-12.63
		c4.416-6.695,10.768-13.047,17.116-17.12c7.385-4.763,12.838-6.209,17.189-4.555c6.626,2.484,9.318,11.597,12.765,23.19
		c0.07,0.139,0.07,0.278,0.139,0.487c4.555,0.273,9.388,2.552,14.15,6.899c5.106,4.558,9.661,11.045,12.63,17.67
		c2.832,6.487,3.591,12.288,2.21,16.013c0,0,0,0,0,0.065c-0.07,0.213-0.139,0.417-0.277,0.621
		C88.738,70.169,86.667,72.31,82.317,72.31z M68.033,52.44c2.692,9.795,5.588,16.486,11.94,17.598
		c4.003,0.687,6.625-0.278,7.797-2.762c0-0.073,0.07-0.073,0.07-0.139c-1.793,0.065-3.864-1.381-5.314-2.835
		c-3.244-3.235-5.315-7.042-7.386-10.768C73.138,53.126,70.79,52.71,68.033,52.44z M77.971,54.434
		c1.724,3.039,3.521,5.939,6.005,8.496c1.793,1.79,3.521,2.41,4.003,2.141c0.204-0.146,0.344-0.694,0.204-1.797V63.2
		c-0.273-1.381-0.894-2.623-1.932-3.864C85.078,57.955,82.665,55.953,77.971,54.434z M76.521,51.811
		c5.105,1.381,8.974,3.456,11.319,6.218l0,0c-1.932-7.386-7.316-16.568-14.081-22.643c-2.762-2.483-7.177-5.657-12.148-6.278
		c0.208,0.825,0.486,1.585,0.76,2.414c0.482,1.52,0.898,3.104,1.311,4.555c2.072,1.862,4.212,3.864,6.283,6.07
		C72.791,45.12,74.728,48.502,76.521,51.811z M10.329,45.741C10.399,45.741,10.399,45.741,10.329,45.741
		c2.553,6.625,11.94,8.766,27.128,6.348c10.629-1.724,19.947-2.345,27.745-1.937c-0.348-1.307-0.691-2.688-1.104-4.134
		c-0.69-2.696-1.45-5.661-2.349-8.77c-2.761-2.415-5.592-4.555-8.349-6.348c-0.069,0-0.069,0.069-0.139,0.069
		C33.589,43.322,19.026,46.705,10.329,45.741z M67.481,50.3c1.445,0.131,2.757,0.27,4.068,0.474c0.76,0.147,1.52,0.277,2.279,0.417
		c-1.52-2.623-3.174-5.319-5.315-7.59c-1.241-1.308-2.483-2.553-3.729-3.799c0.556,1.936,1.037,3.864,1.45,5.596
		C66.652,47.187,67.064,48.78,67.481,50.3z M9.848,43.535c3.243,0.474,7.316,0.204,11.94-0.769
		c8.697-1.928,19.048-6.413,29.815-13.107c-11.663-6.973-23.121-8.214-34.371-3.799c-0.69,0.277-1.311,0.556-2.001,0.829
		C11.436,32.625,9.157,38.769,9.848,43.535z M11.78,28.417c-6.144,3.313-8.628,6.9-8.835,9.453c-0.205,2.14,1.172,3.451,2.418,4.211
		c0.69,0.416,1.515,0.76,2.414,1.037C7.294,38.907,8.744,33.866,11.78,28.417z M55.676,29.863c1.728,1.177,3.452,2.418,5.175,3.869
		c-0.134-0.486-0.274-1.038-0.482-1.52c-0.343-1.038-0.621-2.072-0.964-3.104C58.229,29.108,56.917,29.381,55.676,29.863z
		 M30.415,21.236c7.664,0,15.392,2.418,23.19,7.25c1.658-0.83,3.382-1.315,5.245-1.52C55.537,15.991,52.984,7.364,47.326,5.292
		c-3.66-1.311-8.627,0.07-15.322,4.42c-5.314,3.383-10.494,8.419-14.563,13.872C21.718,21.996,26.068,21.236,30.415,21.236z"></path>
</g>
<g>
	<path class="letters" fill="#676466" d="M116.965,27.861c-3.726,0-7.246,1.52-9.795,4.212v-2.21c0-0.755-0.621-1.376-1.39-1.376h-1.241
		c-0.757,0-1.377,0.621-1.377,1.376v26.646c0,0.752,0.62,1.372,1.377,1.372h1.241c0.769,0,1.39-0.62,1.39-1.372V41.803
		c0-5.379,4.411-9.938,9.656-9.938c5.801,0,9.738,3.933,9.738,9.733v14.976c0,0.76,0.621,1.381,1.372,1.381h1.242
		c0.768,0,1.389-0.621,1.389-1.381V41.46C130.567,33.454,124.972,27.861,116.965,27.861z"></path>
	<path class="letters" fill="#676466" d="M149.889,27.861c-8.7,0-15.253,6.561-15.253,15.322v0.139c0,8.693,6.553,15.253,15.253,15.253
		c8.701,0,15.253-6.56,15.253-15.318v-0.139C165.142,34.422,158.59,27.861,149.889,27.861z M149.815,31.865
		c6.291,0,11.258,4.971,11.258,11.318v0.139c0,6.487-4.771,11.323-11.11,11.323c-6.291,0-11.258-4.967-11.258-11.323v-0.139
		C138.705,36.698,143.476,31.865,149.815,31.865z"></path>
	<path class="letters" fill="#676466" d="M197.854,16.338h-1.242c-0.752,0-1.373,0.621-1.373,1.381v14.906c-2.835-3.036-6.837-4.764-11.258-4.764
		c-8.692,0-15.244,6.561-15.244,15.322v0.139c0,8.693,6.552,15.253,15.244,15.253c4.421,0,8.423-1.658,11.258-4.763v2.762
		c0,0.76,0.621,1.381,1.373,1.381h1.242c0.768,0,1.389-0.621,1.389-1.381V17.719C199.242,16.959,198.621,16.338,197.854,16.338z
		 M195.165,43.184v0.139c0,6.487-4.763,11.323-11.111,11.323c-6.281,0-11.249-4.967-11.249-11.323v-0.139
		c0-6.486,4.755-11.318,11.111-11.318C190.265,31.865,195.165,36.836,195.165,43.184z"></path>
</g>
</svg>
