<svg version="1.1" id="logo" xmlns="http://www.w3.org/2000/svg" xmlns:xlink="http://www.w3.org/1999/xlink" x="0px" y="0px" viewBox="0 0 409.7 73.4" enable-background="new 0 0 409.7 73.4" xml:space="preserve">
<path d="M2.9,22.5c0,0,3.2,3.1,7.4,3.1c2.3,0,4.3-1.2,4.3-3.6c0-5.3-14-4.4-14-13.5C0.6,3.7,4.9,0,10.5,0c5.8,0,8.8,3.2,8.8,3.2
	L17,7.5c0,0-2.8-2.6-6.5-2.6C8,5,6,6.4,6,8.5c0,5.3,13.9,4,13.9,13.4c0,4.7-3.6,8.7-9.8,8.7c-6.6,0-10.2-4-10.2-4L2.9,22.5z"></path>
<polygon points="33.7,0.5 39.1,0.5 39.1,13 52.6,13 52.6,0.5 58,0.5 58,30.1 52.6,30.1 52.6,17.7 39.1,17.7 39.1,30.1 33.7,30.1 "></polygon>
<path d="M88.6,22.5H78.2l-2.5,7.6h-5.5L80.5,0.5h5.6l10.4,29.6h-5.5L88.6,22.5z M83.3,5.6c0,0-0.7,2.9-1.2,4.6l-2.6,7.9h7.8
	l-2.6-7.9C84,8.5,83.4,5.6,83.3,5.6L83.3,5.6z"></path>
<path d="M108.7,0.5h9.5c3.2,0,4.7,0.2,6,0.8c3,1.3,4.8,4.2,4.8,8.1c0,3.5-1.9,6.8-5,8.1v0.1c0,0,0.4,0.4,1,1.5l6.1,11h-6l-5.9-11
	h-5.2v11h-5.4V0.5z M118.9,14.4c2.9,0,4.7-1.7,4.7-4.7c0-2.8-1.2-4.6-5.4-4.6h-4.1v9.3H118.9z"></path>
<path d="M157.6,0c8.7,0,15.3,6.6,15.3,15.1c0,8.7-6.6,15.5-15.3,15.5s-15.3-6.8-15.3-15.5C142.3,6.6,148.9,0,157.6,0 M157.6,25.7
	c5.4,0,9.8-4.5,9.8-10.6c0-5.8-4.3-10.2-9.8-10.2c-5.4,0-9.8,4.3-9.8,10.2C147.8,21.2,152.2,25.7,157.6,25.7"></path>
<path d="M186.7,0.5h5.4l11.2,17.1c1.1,1.7,2.5,4.6,2.5,4.6h0.1c0,0-0.3-2.8-0.3-4.6V0.5h5.3v29.6h-5.3L194.3,13
	c-1.1-1.7-2.5-4.6-2.5-4.6h-0.1c0,0,0.3,2.8,0.3,4.6v17.1h-5.4V0.5z"></path>
<path d="M258.4,0c7.3,0,11,3.8,11,3.8l-2.7,4c0,0-3.2-2.8-7.9-2.8c-6.6,0-10.2,4.6-10.2,10.2c0,6.4,4.4,10.6,9.9,10.6
	c4.5,0,7.4-3.1,7.4-3.1v-3.5h-4.5v-4.6h9.4v15.6h-4.6v-1.4c0-0.6,0-1.3,0-1.3h-0.1c0,0-3.1,3.2-8.6,3.2c-7.8,0-14.5-6-14.5-15.3
	C243.1,6.7,249.6,0,258.4,0"></path>
<path d="M285.2,0.5h9.5c3.2,0,4.7,0.2,6,0.8c3,1.3,4.8,4.2,4.8,8.1c0,3.5-1.9,6.8-5,8.1v0.1c0,0,0.4,0.4,1,1.5l6.1,11h-6l-5.9-11
	h-5.2v11h-5.4V0.5z M295.4,14.4c2.9,0,4.7-1.7,4.7-4.7c0-2.8-1.2-4.6-5.4-4.6h-4.1v9.3H295.4z"></path>
<polygon points="320.9,0.5 338.7,0.5 338.7,5.1 326.3,5.1 326.3,12.9 336.3,12.9 336.3,17.5 326.3,17.5 326.3,25.5 339.3,25.5
	339.3,30.1 320.9,30.1 "></polygon>
<polygon points="353.2,0.5 370.9,0.5 370.9,5.1 358.6,5.1 358.6,12.9 368.6,12.9 368.6,17.5 358.6,17.5 358.6,25.5 371.6,25.5
	371.6,30.1 353.2,30.1 "></polygon>
<path d="M385.5,0.5h5.4l11.2,17.1c1.1,1.7,2.5,4.6,2.5,4.6h0.1c0,0-0.3-2.8-0.3-4.6V0.5h5.3v29.6h-5.3L393.2,13
	c-1.1-1.7-2.5-4.6-2.5-4.6h-0.1c0,0,0.3,2.8,0.3,4.6v17.1h-5.4V0.5z"></path>
<path d="M129.4,59.2h2l3.2,7.5c0.3,0.8,0.7,1.9,0.7,1.9h0c0,0,0.4-1.1,0.7-1.9l3.2-7.5h2.1l1.1,13.9h-1.9l-0.7-8.8
	c-0.1-0.8,0-2.1,0-2.1h0c0,0-0.4,1.3-0.7,2.1l-2.8,6.3h-1.7l-2.8-6.3c-0.3-0.8-0.7-2.1-0.7-2.1h0c0,0,0,1.2,0,2.1l-0.7,8.8h-2
	L129.4,59.2z"></path>
<polygon points="149.7,59.2 157.8,59.2 157.8,60.9 151.7,60.9 151.7,65.3 156.7,65.3 156.7,67 151.7,67 151.7,71.4 158.1,71.4
	158.1,73.1 149.7,73.1 "></polygon>
<path d="M164.9,59.2h1.9l6.2,9c0.5,0.7,1.2,2,1.2,2h0c0,0-0.1-1.2-0.1-2v-9h2v13.9h-1.9l-6.2-9c-0.5-0.8-1.2-2-1.2-2h0
	c0,0,0.1,1.2,0.1,2v9h-2V59.2z"></path>
<polygon points="183.8,59.2 185.8,59.2 185.8,71.4 192,71.4 192,73.1 183.8,73.1 "></polygon>
<path d="M204,59c4,0,7.1,3.1,7.1,7.1c0,4.1-3.1,7.3-7.1,7.3c-4,0-7.2-3.2-7.2-7.3C196.9,62.1,200,59,204,59 M204,71.6
	c2.8,0,5.1-2.4,5.1-5.5c0-3-2.3-5.3-5.1-5.3c-2.8,0-5.1,2.3-5.1,5.3C198.9,69.2,201.2,71.6,204,71.6"></path>
<path d="M227,59.2h5.1c2.5,0,4.4,1.7,4.4,4.4c0,2.6-1.8,4.4-4.4,4.4h-3.1v5.1h-2V59.2z M231.7,66.3c1.7,0,2.7-1,2.7-2.7
	c0-1.7-1-2.7-2.7-2.7h-2.8v5.4H231.7z"></path>
<path d="M249.2,69.1H244l-1.4,4h-2l5-13.9h2.1l5,13.9h-2L249.2,69.1z M246.6,61.1c0,0-0.3,1.3-0.6,2l-1.6,4.4h4.2l-1.5-4.4
	C247,62.4,246.7,61.1,246.6,61.1L246.6,61.1z"></path>
<path d="M258.7,59.2h4.3c1.5,0,2.1,0.1,2.6,0.3c1.4,0.5,2.3,1.9,2.3,3.8c0,1.8-1,3.3-2.5,3.8v0c0,0,0.2,0.2,0.4,0.6l3,5.4h-2.2
	l-2.9-5.5h-3v5.5h-2V59.2z M263.4,65.9c1.5,0,2.5-1,2.5-2.5c0-1-0.4-1.8-1.1-2.1c-0.4-0.2-0.8-0.3-1.9-0.3h-2.2v5H263.4z"></path>
<polygon points="275.2,59.2 277.2,59.2 277.2,65.1 279.3,65.1 282.8,59.2 284.9,59.2 280.9,65.8 280.9,65.9 285.2,73.1 283,73.1
	279.3,66.7 277.2,66.7 277.2,73.1 275.2,73.1 "></polygon>
</svg>
