<svg version="1.1" xmlns="http://www.w3.org/2000/svg" xmlns:xlink="http://www.w3.org/1999/xlink" x="0px" y="0px" width="171px" height="108px" viewBox="0 0 171 108" enable-background="new 0 0 171 108" xml:space="preserve" class="cove-logo"><path fill="#FFFFFF" d="M11.184,53.555l75.527-50.32l75.531,50.32l-75.527,50.32L11.184,53.555z M86.711,2L9.336,53.555    l77.379,51.551l77.375-51.551l0,0L86.711,2L86.711,2z" class="path"></path><path fill="#FFFFFF" d="M86.715,101.176L15.242,53.555L86.711,5.938l71.473,47.617L86.715,101.176z M17.09,53.555l69.625,46.387  l69.617-46.387L86.711,7.168L17.09,53.555z" class="path"></path><polygon fill="#FFFFFF" points="80.406,33.957 79.902,33.957 79.902,30.141 78.32,30.141 78.32,29.637 81.988,29.637 81.988,30.141   80.406,30.141 " class="path"></polygon><polygon fill="#FFFFFF" points="88.324,33.957 87.82,33.957 87.82,31.953 85.039,31.953 85.039,33.957 84.535,33.957 84.535,29.637   85.039,29.637 85.039,31.445 87.82,31.445 87.82,29.637 88.324,29.637 " class="path"></polygon><polygon fill="#FFFFFF" points="95.027,33.957 91.352,33.957 91.352,29.637 94.898,29.637 94.898,30.141 91.855,30.141   91.855,31.465 93.461,31.465 93.461,31.969 91.855,31.969 91.855,33.453 95.027,33.453 " class="path"></polygon><path fill="#FFFFFF" d="M69.594,46.887c-0.953,1.035-2.148,2.02-5.043,2.02c-2.73,0-5.312-2.086-5.312-5.18  c0-2.973,2.297-5.34,5.285-5.34c2.758,0,4.426,1.586,4.914,2.059l-1.094,0.926c-0.457-0.375-1.734-1.531-3.805-1.531  c-1.883,0-3.844,1.371-3.844,3.887c0,1.801,1.449,3.727,4.207,3.727c2.152,0,3.281-1.09,3.727-1.613L69.594,46.887z" class="path"></path><path fill="#FFFFFF" d="M74.559,43.645c0-3.16,2.516-5.258,5.406-5.258c2.895,0,5.41,2.082,5.41,5.258  c0,3.164-2.516,5.262-5.41,5.262C77.074,48.906,74.559,46.82,74.559,43.645 M83.922,43.645c0-2.086-1.668-3.805-3.957-3.805  c-2.285,0-3.953,1.719-3.953,3.805s1.668,3.809,3.953,3.809C82.254,47.453,83.922,45.73,83.922,43.645" class="path"></path><polygon fill="#FFFFFF" points="91.234,38.602 94.934,47.047 98.656,38.602 100.27,38.602 95.793,48.688 94.059,48.688   89.648,38.602 " class="path"></polygon><polygon fill="#FFFFFF" points="113.871,38.602 113.871,40.055 107.066,40.055 107.066,42.703 110.492,42.703 110.492,44.156   107.066,44.156 107.066,47.238 114.129,47.238 114.129,48.688 105.609,48.688 105.609,38.602 " class="path"></polygon><path fill="#FFFFFF" d="M86.367,58.258h-0.566l-0.703-1.48h-2.074l-0.68,1.48h-0.566l2.059-4.324h0.508L86.367,58.258z  M84.09,54.551l-0.812,1.719h1.598L84.09,54.551z" class="path"></path><polygon fill="#FFFFFF" points="89.805,58.258 89.301,58.258 89.301,54.441 87.719,54.441 87.719,53.934 91.387,53.934   91.387,54.441 89.805,54.441 " class="path"></polygon><polygon fill="#FFFFFF" points="62.129,68.984 61.453,68.984 61.453,63.898 59.344,63.898 59.344,63.219 64.238,63.219   64.238,63.898 62.129,63.898 " class="path"></polygon><rect x="67.578" y="63.219" fill="#FFFFFF" width="0.676" height="5.766" class="path"></rect><path fill="#FFFFFF" d="M75.402,63.223c0.906,0,1.805,0.449,1.805,1.574c0,0.645-0.32,1.055-0.551,1.176  c0.359,0.199,0.82,0.707,0.82,1.395c0,1.332-1.102,1.617-2.074,1.617h-3.211v-5.762H75.402z M75.402,65.691  c0.734,0,1.129-0.371,1.129-0.926c0-0.477-0.363-0.867-1.129-0.867h-2.535v1.793H75.402z M75.402,68.309  c0.844,0,1.398-0.211,1.398-0.914c0-0.68-0.535-1.02-1.398-1.02h-2.535v1.934H75.402z" class="path"></path><path fill="#FFFFFF" d="M86.145,66.746c0,1.477-0.777,2.359-2.543,2.359c-1.824,0-2.543-0.883-2.543-2.359v-3.527h0.672v3.527  c0,1.223,0.648,1.684,1.871,1.684c1.219,0,1.867-0.461,1.867-1.684v-3.527h0.676V66.746z" class="path"></path><path fill="#FFFFFF" d="M95.148,68.984h-0.777l-1.328-2.398h-2.281v2.398h-0.676v-5.762h2.871c0.871,0,2.328,0.156,2.328,1.652  c0,1.246-0.801,1.645-1.473,1.711L95.148,68.984z M93.238,65.91c0.762,0,1.375-0.09,1.375-1.027c0-0.719-0.633-0.984-1.254-0.984  h-2.598v2.012H93.238z" class="path"></path><path fill="#FFFFFF" d="M101.543,63.094c1.766,0,3.094,1.387,3.094,3.008s-1.328,3.004-3.094,3.004c-1.77,0-3.098-1.383-3.098-3.004  S99.766,63.094,101.543,63.094 M101.543,68.43c1.379,0,2.418-1.051,2.418-2.328c0-1.273-1.039-2.328-2.418-2.328  c-1.391,0-2.426,1.055-2.426,2.328C99.117,67.379,100.152,68.43,101.543,68.43" class="path"></path><polygon fill="#FFFFFF" points="113.402,68.984 112.727,68.984 108.992,64.289 108.973,64.289 108.973,68.984 108.297,68.984   108.297,63.219 108.973,63.219 112.707,67.98 112.727,67.98 112.727,63.219 113.402,63.219 " class="path"><rect x="9.336" y="2" fill="#FFFFFF" width="154.754" height="103.105" class="path"></rect></polygon></svg>
